<svg width="151" height="92" viewBox="0 0 151 92" fill="none" xmlns="http://www.w3.org/2000/svg">
<g filter="url(#filter0_d_7074_211)">
<rect x="22.9487" y="22.4359" width="124.456" height="38.2923" rx="8.87179" fill="#1A1B1F" shape-rendering="crispEdges"/>
<rect x="23.3923" y="22.8795" width="123.569" height="37.4051" rx="8.4282" stroke="#26272B" stroke-width="0.887179" shape-rendering="crispEdges"/>
<g clip-path="url(#clip0_7074_211)">
<path d="M49.9189 38.7431C49.5286 38.7431 49.2092 38.4237 49.2092 38.0333C49.2092 37.643 49.5286 37.3236 49.9189 37.3236V36.6139H38.563V37.3236C38.9534 37.3236 39.2728 37.643 39.2728 38.0333C39.2728 38.4237 38.9534 38.7431 38.563 38.7431H37.1436V43.7113H38.563C38.9534 43.7113 39.2728 44.0307 39.2728 44.421C39.2728 44.8114 38.9534 45.1308 38.563 45.1308V45.8405H49.9189V45.1308C49.5286 45.1308 49.2092 44.8114 49.2092 44.421C49.2092 44.0307 49.5286 43.7113 49.9189 43.7113H51.3384V38.7431H49.9189ZM49.9189 41.5821H49.2092V42.2918H47.7897V41.5821H45.2417C45.0927 41.9937 44.7023 42.2918 44.241 42.2918C43.7797 42.2918 43.3893 41.9937 43.2403 41.5821H40.6923V42.2918H39.2728V41.5821H38.563V40.8723H39.2728V40.1626H40.6923V40.8723H43.2403C43.3893 40.4607 43.7797 40.1626 44.241 40.1626C44.7023 40.1626 45.0927 40.4607 45.2417 40.8723H47.7897V40.1626H49.2092V40.8723H49.9189V41.5821Z" fill="white"/>
</g>
<path d="M61.2538 46.1815C61.055 46.1815 60.8936 46.1359 60.7694 46.0448C60.6534 45.9538 60.5831 45.8337 60.5582 45.6847C60.5334 45.5273 60.5624 45.3534 60.6452 45.163L63.9242 37.897C64.0318 37.6569 64.1602 37.4871 64.3092 37.3877C64.4665 37.2801 64.6446 37.2263 64.8433 37.2263C65.0337 37.2263 65.2035 37.2801 65.3525 37.3877C65.5099 37.4871 65.6424 37.6569 65.75 37.897L69.0414 45.163C69.1325 45.3534 69.1656 45.5273 69.1408 45.6847C69.116 45.842 69.0456 45.9662 68.9296 46.0573C68.8137 46.1401 68.6605 46.1815 68.4701 46.1815C68.2382 46.1815 68.0561 46.1276 67.9236 46.02C67.7994 45.9041 67.6876 45.7302 67.5882 45.4983L66.7809 43.6228L67.4516 44.0576H62.2102L62.8809 43.6228L62.0859 45.4983C61.9783 45.7385 61.8665 45.9124 61.7506 46.02C61.6347 46.1276 61.4691 46.1815 61.2538 46.1815ZM64.8185 39.0521L63.0796 43.1881L62.7567 42.7907H66.9051L66.5946 43.1881L64.8433 39.0521H64.8185ZM73.0068 46.2063C72.3692 46.2063 71.8144 46.078 71.3424 45.8213C70.8705 45.5563 70.5061 45.1837 70.2494 44.7034C69.9927 44.2232 69.8644 43.6601 69.8644 43.0142C69.8644 42.5257 69.9348 42.091 70.0755 41.7101C70.2246 41.3209 70.4357 40.9938 70.709 40.7289C70.9822 40.4556 71.3134 40.2486 71.7026 40.1078C72.0918 39.9588 72.5265 39.8843 73.0068 39.8843C73.28 39.8843 73.574 39.9215 73.8886 39.9961C74.2116 40.0706 74.5138 40.1948 74.7953 40.3687C74.9278 40.4515 75.0148 40.5508 75.0562 40.6668C75.0976 40.7827 75.1058 40.9028 75.081 41.027C75.0562 41.1429 75.0023 41.2464 74.9195 41.3375C74.845 41.4203 74.7498 41.4741 74.6339 41.4989C74.5179 41.5155 74.3896 41.4865 74.2488 41.412C74.0667 41.3043 73.8804 41.2257 73.6899 41.176C73.4995 41.118 73.3173 41.0891 73.1434 41.0891C72.8702 41.0891 72.63 41.1346 72.423 41.2257C72.216 41.3085 72.038 41.4327 71.8889 41.5983C71.7482 41.7556 71.6405 41.9544 71.566 42.1945C71.4915 42.4346 71.4542 42.712 71.4542 43.0267C71.4542 43.6394 71.5991 44.1238 71.8889 44.4799C72.187 44.8276 72.6052 45.0015 73.1434 45.0015C73.3173 45.0015 73.4953 44.9767 73.6775 44.927C73.8679 44.8773 74.0584 44.7987 74.2488 44.691C74.3896 44.6165 74.5138 44.5916 74.6214 44.6165C74.7374 44.6413 74.8326 44.6993 74.9071 44.7904C74.9816 44.8732 75.0272 44.9767 75.0437 45.1009C75.0603 45.2168 75.0437 45.3327 74.9941 45.4487C74.9527 45.5646 74.8699 45.6598 74.7457 45.7343C74.4724 45.8999 74.1826 46.02 73.8762 46.0945C73.5698 46.1691 73.28 46.2063 73.0068 46.2063ZM78.0216 46.2063C77.5827 46.2063 77.1894 46.1235 76.8416 45.9579C76.5021 45.784 76.233 45.5522 76.0343 45.2624C75.8438 44.9725 75.7486 44.6455 75.7486 44.2811C75.7486 43.834 75.8645 43.4821 76.0964 43.2254C76.3282 42.9604 76.705 42.77 77.2266 42.654C77.7483 42.5381 78.448 42.4802 79.3257 42.4802H79.9467V43.3744H79.3381C78.8248 43.3744 78.4149 43.3993 78.1085 43.449C77.8021 43.4986 77.5827 43.5856 77.4502 43.7098C77.326 43.8257 77.2639 43.9913 77.2639 44.2066C77.2639 44.4799 77.3591 44.7034 77.5496 44.8773C77.74 45.0512 78.005 45.1381 78.3445 45.1381C78.6177 45.1381 78.8579 45.076 79.0649 44.9518C79.2802 44.8194 79.4499 44.6413 79.5741 44.4178C79.6983 44.1942 79.7604 43.9375 79.7604 43.6477V42.2193C79.7604 41.8053 79.6693 41.5072 79.4872 41.3251C79.305 41.1429 78.9986 41.0518 78.5681 41.0518C78.3279 41.0518 78.0671 41.0808 77.7856 41.1387C77.5123 41.1967 77.2225 41.2961 76.9161 41.4368C76.7588 41.5114 76.618 41.5321 76.4938 41.4989C76.3779 41.4658 76.2868 41.3996 76.2206 41.3002C76.1543 41.1926 76.1212 41.0766 76.1212 40.9524C76.1212 40.8282 76.1543 40.7082 76.2206 40.5922C76.2868 40.468 76.3986 40.377 76.5559 40.319C76.9368 40.1617 77.3012 40.0499 77.6489 39.9836C78.005 39.9174 78.3279 39.8843 78.6177 39.8843C79.2139 39.8843 79.7025 39.9754 80.0834 40.1575C80.4725 40.3397 80.7624 40.6171 80.9528 40.9897C81.1433 41.354 81.2385 41.826 81.2385 42.4056V45.3866C81.2385 45.6432 81.1764 45.842 81.0522 45.9827C80.928 46.1152 80.7499 46.1815 80.5181 46.1815C80.2862 46.1815 80.1041 46.1152 79.9716 45.9827C79.8474 45.842 79.7853 45.6432 79.7853 45.3866V44.7904H79.8846C79.8267 45.0802 79.7108 45.3327 79.5369 45.548C79.3713 45.755 79.1601 45.9165 78.9034 46.0324C78.6467 46.1484 78.3528 46.2063 78.0216 46.2063ZM86.3169 46.2063C85.8035 46.2063 85.3523 46.078 84.9631 45.8213C84.5822 45.5646 84.3296 45.221 84.2054 44.7904L84.3421 44.4799V45.3866C84.3421 45.6432 84.2758 45.842 84.1433 45.9827C84.0108 46.1152 83.8245 46.1815 83.5844 46.1815C83.336 46.1815 83.1455 46.1152 83.0131 45.9827C82.8806 45.842 82.8143 45.6432 82.8143 45.3866V38.0088C82.8143 37.7521 82.8806 37.5575 83.0131 37.425C83.1455 37.2925 83.336 37.2263 83.5844 37.2263C83.8328 37.2263 84.0233 37.2925 84.1557 37.425C84.2965 37.5575 84.3669 37.7521 84.3669 38.0088V41.2381H84.2178C84.3503 40.8324 84.607 40.5053 84.9879 40.2569C85.3688 40.0085 85.8118 39.8843 86.3169 39.8843C86.8551 39.8843 87.323 40.0126 87.7204 40.2693C88.1179 40.526 88.4284 40.8903 88.652 41.3623C88.8755 41.826 88.9873 42.3849 88.9873 43.0391C88.9873 43.6849 88.8755 44.248 88.652 44.7283C88.4284 45.2003 88.1137 45.5646 87.708 45.8213C87.3106 46.078 86.8469 46.2063 86.3169 46.2063ZM85.8822 45.0264C86.1886 45.0264 86.4577 44.9518 86.6895 44.8028C86.9214 44.6537 87.0994 44.4343 87.2236 44.1445C87.3561 43.8464 87.4223 43.4779 87.4223 43.0391C87.4223 42.3767 87.2816 41.884 87 41.561C86.7185 41.2298 86.3459 41.0642 85.8822 41.0642C85.5758 41.0642 85.3067 41.1387 85.0749 41.2878C84.843 41.4286 84.6608 41.648 84.5284 41.9461C84.4042 42.2359 84.3421 42.6002 84.3421 43.0391C84.3421 43.6932 84.4828 44.19 84.7643 44.5295C85.0459 44.8608 85.4185 45.0264 85.8822 45.0264ZM92.2615 46.2063C91.8226 46.2063 91.4293 46.1235 91.0815 45.9579C90.742 45.784 90.4729 45.5522 90.2742 45.2624C90.0838 44.9725 89.9885 44.6455 89.9885 44.2811C89.9885 43.834 90.1045 43.4821 90.3363 43.2254C90.5682 42.9604 90.9449 42.77 91.4666 42.654C91.9882 42.5381 92.6879 42.4802 93.5656 42.4802H94.1867V43.3744H93.5781C93.0647 43.3744 92.6548 43.3993 92.3484 43.449C92.0421 43.4986 91.8226 43.5856 91.6901 43.7098C91.5659 43.8257 91.5038 43.9913 91.5038 44.2066C91.5038 44.4799 91.5991 44.7034 91.7895 44.8773C91.98 45.0512 92.2449 45.1381 92.5844 45.1381C92.8577 45.1381 93.0978 45.076 93.3048 44.9518C93.5201 44.8194 93.6898 44.6413 93.8141 44.4178C93.9383 44.1942 94.0004 43.9375 94.0004 43.6477V42.2193C94.0004 41.8053 93.9093 41.5072 93.7271 41.3251C93.5449 41.1429 93.2386 41.0518 92.808 41.0518C92.5679 41.0518 92.307 41.0808 92.0255 41.1387C91.7522 41.1967 91.4624 41.2961 91.1561 41.4368C90.9987 41.5114 90.858 41.5321 90.7338 41.4989C90.6178 41.4658 90.5268 41.3996 90.4605 41.3002C90.3943 41.1926 90.3611 41.0766 90.3611 40.9524C90.3611 40.8282 90.3943 40.7082 90.4605 40.5922C90.5268 40.468 90.6385 40.377 90.7959 40.319C91.1768 40.1617 91.5411 40.0499 91.8889 39.9836C92.2449 39.9174 92.5679 39.8843 92.8577 39.8843C93.4539 39.8843 93.9424 39.9754 94.3233 40.1575C94.7125 40.3397 95.0023 40.6171 95.1927 40.9897C95.3832 41.354 95.4784 41.826 95.4784 42.4056V45.3866C95.4784 45.6432 95.4163 45.842 95.2921 45.9827C95.1679 46.1152 94.9899 46.1815 94.758 46.1815C94.5262 46.1815 94.344 46.1152 94.2115 45.9827C94.0873 45.842 94.0252 45.6432 94.0252 45.3866V44.7904H94.1246C94.0666 45.0802 93.9507 45.3327 93.7768 45.548C93.6112 45.755 93.4 45.9165 93.1433 46.0324C92.8867 46.1484 92.5927 46.2063 92.2615 46.2063ZM97.8492 46.1815C97.6008 46.1815 97.4103 46.1152 97.2778 45.9827C97.1453 45.842 97.0791 45.6432 97.0791 45.3866V40.6916C97.0791 40.4349 97.1453 40.2403 97.2778 40.1078C97.4103 39.9754 97.5966 39.9091 97.8367 39.9091C98.0769 39.9091 98.2632 39.9754 98.3957 40.1078C98.5282 40.2403 98.5944 40.4349 98.5944 40.6916V41.5983L98.4578 41.2257C98.6234 40.8117 98.8801 40.4846 99.2278 40.2445C99.5756 40.0043 99.9896 39.8843 100.47 39.8843C100.958 39.8843 101.36 40.0002 101.675 40.232C101.989 40.4639 102.209 40.8199 102.333 41.3002H102.159C102.325 40.8614 102.598 40.5177 102.979 40.2693C103.36 40.0126 103.799 39.8843 104.295 39.8843C104.759 39.8843 105.14 39.9754 105.438 40.1575C105.744 40.3397 105.972 40.6171 106.121 40.9897C106.27 41.354 106.345 41.8177 106.345 42.3808V45.3866C106.345 45.6432 106.274 45.842 106.134 45.9827C106.001 46.1152 105.811 46.1815 105.562 46.1815C105.314 46.1815 105.123 46.1152 104.991 45.9827C104.858 45.842 104.792 45.6432 104.792 45.3866V42.4429C104.792 41.9792 104.714 41.6397 104.556 41.4244C104.407 41.2091 104.151 41.1015 103.786 41.1015C103.38 41.1015 103.062 41.2464 102.83 41.5362C102.598 41.8177 102.482 42.211 102.482 42.7161V45.3866C102.482 45.6432 102.416 45.842 102.283 45.9827C102.151 46.1152 101.96 46.1815 101.712 46.1815C101.464 46.1815 101.269 46.1152 101.128 45.9827C100.996 45.842 100.929 45.6432 100.929 45.3866V42.4429C100.929 41.9792 100.851 41.6397 100.693 41.4244C100.544 41.2091 100.292 41.1015 99.9358 41.1015C99.5301 41.1015 99.2113 41.2464 98.9794 41.5362C98.7476 41.8177 98.6317 42.211 98.6317 42.7161V45.3866C98.6317 45.9165 98.3708 46.1815 97.8492 46.1815ZM110.94 46.2063C110.253 46.2063 109.66 46.078 109.164 45.8213C108.667 45.5646 108.282 45.2003 108.009 44.7283C107.744 44.2563 107.611 43.6974 107.611 43.0515C107.611 42.4222 107.739 41.8716 107.996 41.3996C108.261 40.9276 108.621 40.5591 109.077 40.2941C109.54 40.0209 110.066 39.8843 110.654 39.8843C111.085 39.8843 111.47 39.9547 111.809 40.0954C112.157 40.2362 112.451 40.4391 112.691 40.704C112.94 40.969 113.126 41.2919 113.25 41.6728C113.383 42.0454 113.449 42.4677 113.449 42.9397C113.449 43.0888 113.395 43.2047 113.287 43.2875C113.188 43.362 113.043 43.3993 112.853 43.3993H108.866V42.505H112.356L112.157 42.6913C112.157 42.3104 112.099 41.9916 111.983 41.7349C111.875 41.4782 111.714 41.2836 111.499 41.1512C111.292 41.0104 111.031 40.94 110.716 40.94C110.368 40.94 110.07 41.0228 109.822 41.1884C109.582 41.3458 109.396 41.5735 109.263 41.8716C109.139 42.1614 109.077 42.5091 109.077 42.9149V43.0018C109.077 43.6808 109.234 44.19 109.549 44.5295C109.872 44.8608 110.344 45.0264 110.965 45.0264C111.18 45.0264 111.42 45.0015 111.685 44.9518C111.958 44.8939 112.215 44.7987 112.455 44.6662C112.629 44.5668 112.782 44.5254 112.915 44.542C113.047 44.5502 113.151 44.5958 113.225 44.6786C113.308 44.7614 113.358 44.8649 113.374 44.9891C113.391 45.105 113.366 45.2251 113.3 45.3493C113.242 45.4735 113.138 45.5811 112.989 45.6722C112.699 45.8544 112.364 45.991 111.983 46.0821C111.611 46.1649 111.263 46.2063 110.94 46.2063ZM115.448 46.1815C115.2 46.1815 115.009 46.1152 114.877 45.9827C114.745 45.842 114.678 45.6432 114.678 45.3866V40.6916C114.678 40.4349 114.745 40.2403 114.877 40.1078C115.009 39.9754 115.196 39.9091 115.436 39.9091C115.676 39.9091 115.862 39.9754 115.995 40.1078C116.127 40.2403 116.194 40.4349 116.194 40.6916V41.5362L116.057 41.2257C116.239 40.7868 116.521 40.4556 116.902 40.232C117.291 40.0002 117.73 39.8843 118.218 39.8843C118.707 39.8843 119.108 39.9754 119.423 40.1575C119.738 40.3397 119.974 40.6171 120.131 40.9897C120.288 41.354 120.367 41.8177 120.367 42.3808V45.3866C120.367 45.6432 120.301 45.842 120.168 45.9827C120.036 46.1152 119.845 46.1815 119.597 46.1815C119.348 46.1815 119.154 46.1152 119.013 45.9827C118.881 45.842 118.814 45.6432 118.814 45.3866V42.4553C118.814 41.9833 118.723 41.6397 118.541 41.4244C118.367 41.2091 118.094 41.1015 117.721 41.1015C117.266 41.1015 116.902 41.2464 116.628 41.5362C116.363 41.8177 116.231 42.1945 116.231 42.6665V45.3866C116.231 45.9165 115.97 46.1815 115.448 46.1815ZM124.726 46.2063C124.188 46.2063 123.736 46.1152 123.372 45.9331C123.016 45.7509 122.751 45.4859 122.577 45.1381C122.403 44.7821 122.316 44.3432 122.316 43.8216V41.176H121.671C121.472 41.176 121.319 41.1263 121.211 41.027C121.103 40.9193 121.05 40.7744 121.05 40.5922C121.05 40.4018 121.103 40.2569 121.211 40.1575C121.319 40.0582 121.472 40.0085 121.671 40.0085H122.316V38.8782C122.316 38.6215 122.383 38.4269 122.515 38.2944C122.656 38.162 122.85 38.0957 123.099 38.0957C123.347 38.0957 123.538 38.162 123.67 38.2944C123.803 38.4269 123.869 38.6215 123.869 38.8782V40.0085H125.186C125.384 40.0085 125.537 40.0582 125.645 40.1575C125.753 40.2569 125.807 40.4018 125.807 40.5922C125.807 40.7744 125.753 40.9193 125.645 41.027C125.537 41.1263 125.384 41.176 125.186 41.176H123.869V43.7346C123.869 44.1321 123.956 44.4302 124.13 44.6289C124.304 44.8276 124.585 44.927 124.974 44.927C125.115 44.927 125.239 44.9146 125.347 44.8897C125.455 44.8649 125.55 44.8483 125.633 44.8401C125.732 44.8318 125.815 44.8649 125.881 44.9394C125.947 45.0057 125.98 45.1464 125.98 45.3617C125.98 45.5273 125.951 45.6764 125.894 45.8089C125.844 45.9331 125.749 46.02 125.608 46.0697C125.5 46.1028 125.359 46.1318 125.186 46.1566C125.012 46.1898 124.858 46.2063 124.726 46.2063ZM129.42 46.2063C128.79 46.2063 128.244 46.078 127.78 45.8213C127.317 45.5646 126.956 45.2003 126.7 44.7283C126.443 44.248 126.315 43.6849 126.315 43.0391C126.315 42.5505 126.385 42.1158 126.526 41.7349C126.675 41.3458 126.886 41.0145 127.159 40.7413C127.433 40.4598 127.76 40.2486 128.14 40.1078C128.521 39.9588 128.948 39.8843 129.42 39.8843C130.049 39.8843 130.596 40.0126 131.059 40.2693C131.523 40.526 131.883 40.8903 132.14 41.3623C132.397 41.8343 132.525 42.3932 132.525 43.0391C132.525 43.5276 132.45 43.9665 132.301 44.3557C132.161 44.7448 131.954 45.0802 131.68 45.3617C131.407 45.635 131.08 45.8461 130.699 45.9952C130.318 46.1359 129.892 46.2063 129.42 46.2063ZM129.42 45.0264C129.726 45.0264 129.995 44.9518 130.227 44.8028C130.459 44.6537 130.637 44.4343 130.761 44.1445C130.894 43.8464 130.96 43.4779 130.96 43.0391C130.96 42.3767 130.819 41.884 130.538 41.561C130.256 41.2298 129.883 41.0642 129.42 41.0642C129.113 41.0642 128.844 41.1387 128.612 41.2878C128.381 41.4286 128.198 41.648 128.066 41.9461C127.942 42.2359 127.88 42.6002 127.88 43.0391C127.88 43.6932 128.02 44.19 128.302 44.5295C128.583 44.8608 128.956 45.0264 129.42 45.0264Z" fill="white"/>
</g>
<defs>
<filter id="filter0_d_7074_211" x="0.769243" y="0.256456" width="177.687" height="91.5231" filterUnits="userSpaceOnUse" color-interpolation-filters="sRGB">
<feFlood flood-opacity="0" result="BackgroundImageFix"/>
<feColorMatrix in="SourceAlpha" type="matrix" values="0 0 0 0 0 0 0 0 0 0 0 0 0 0 0 0 0 0 127 0" result="hardAlpha"/>
<feOffset dx="4.4359" dy="4.4359"/>
<feGaussianBlur stdDeviation="13.3077"/>
<feComposite in2="hardAlpha" operator="out"/>
<feColorMatrix type="matrix" values="0 0 0 0 0 0 0 0 0 0 0 0 0 0 0 0 0 0 0.06 0"/>
<feBlend mode="normal" in2="BackgroundImageFix" result="effect1_dropShadow_7074_211"/>
<feBlend mode="normal" in="SourceGraphic" in2="effect1_dropShadow_7074_211" result="shape"/>
</filter>
<clipPath id="clip0_7074_211">
<rect width="14.1949" height="14.1949" fill="white" transform="translate(37.1436 34.4847)"/>
</clipPath>
</defs>
</svg>
