<svg width="141" height="92" viewBox="0 0 141 92" fill="none" xmlns="http://www.w3.org/2000/svg">
<g filter="url(#filter0_d_7074_207)">
<rect x="22.8462" y="22.4359" width="86.4564" height="38.2923" rx="8.87179" fill="#1A1B1F" shape-rendering="crispEdges"/>
<rect x="23.2898" y="22.8795" width="85.5692" height="37.4051" rx="8.4282" stroke="#26272B" stroke-width="0.887179" shape-rendering="crispEdges"/>
<g clip-path="url(#clip0_7074_207)">
<path d="M49.9454 40.9369C48.655 40.9369 48.0098 39.0013 46.0741 39.0013C44.1385 39.0013 44.1385 40.2917 44.1385 40.2917C44.1385 40.2917 44.1385 39.0013 42.2028 39.0013C40.2671 39.0013 39.6219 40.9369 38.3315 40.9369C37.6862 40.9369 37.041 40.2917 37.041 40.2917C37.041 40.2917 37.6862 43.5178 40.2671 43.5178C43.4932 43.5178 44.1385 41.5821 44.1385 41.5821C44.1385 41.5821 44.7837 43.5178 48.0098 43.5178C50.5907 43.5178 51.2359 40.2917 51.2359 40.2917C51.2359 40.2917 50.5907 40.9369 49.9454 40.9369Z" fill="white"/>
</g>
<path d="M61.9086 46.0821C61.6354 46.0821 61.4242 46.0117 61.2752 45.871C61.1344 45.7219 61.064 45.5108 61.064 45.2375V38.1702C61.064 37.897 61.1344 37.69 61.2752 37.5492C61.4242 37.4002 61.6354 37.3256 61.9086 37.3256H64.8896C65.5023 37.3256 66.024 37.4167 66.4545 37.5989C66.8851 37.7811 67.2122 38.0419 67.4358 38.3814C67.6676 38.7209 67.7835 39.1266 67.7835 39.5986C67.7835 40.1285 67.6304 40.5757 67.324 40.94C67.0176 41.3043 66.5995 41.5486 66.0695 41.6728V41.4865C66.6823 41.5776 67.1584 41.8095 67.4979 42.1821C67.8374 42.5547 68.0071 43.0391 68.0071 43.6353C68.0071 44.4136 67.7421 45.0181 67.2122 45.4487C66.6905 45.871 65.9619 46.0821 65.0262 46.0821H61.9086ZM62.5918 44.8773H64.8275C65.3905 44.8773 65.8045 44.7697 66.0695 44.5544C66.3345 44.3308 66.467 43.9996 66.467 43.5607C66.467 43.1136 66.3345 42.7824 66.0695 42.5671C65.8045 42.3518 65.3905 42.2442 64.8275 42.2442H62.5918V44.8773ZM62.5918 41.0394H64.6163C65.1628 41.0394 65.5686 40.9359 65.8335 40.7289C66.1068 40.5136 66.2434 40.1989 66.2434 39.7849C66.2434 39.3709 66.1068 39.0604 65.8335 38.8534C65.5686 38.6381 65.1628 38.5304 64.6163 38.5304H62.5918V41.0394ZM71.4659 46.2063C71.0271 46.2063 70.6338 46.1235 70.286 45.9579C69.9465 45.784 69.6774 45.5522 69.4787 45.2624C69.2882 44.9725 69.193 44.6455 69.193 44.2811C69.193 43.834 69.3089 43.4821 69.5408 43.2254C69.7726 42.9604 70.1494 42.77 70.671 42.654C71.1927 42.5381 71.8924 42.4802 72.7701 42.4802H73.3911V43.3744H72.7825C72.2691 43.3744 71.8593 43.3993 71.5529 43.449C71.2465 43.4986 71.0271 43.5856 70.8946 43.7098C70.7704 43.8257 70.7083 43.9913 70.7083 44.2066C70.7083 44.4799 70.8035 44.7034 70.994 44.8773C71.1844 45.0512 71.4494 45.1381 71.7889 45.1381C72.0621 45.1381 72.3022 45.076 72.5093 44.9518C72.7245 44.8194 72.8943 44.6413 73.0185 44.4178C73.1427 44.1942 73.2048 43.9375 73.2048 43.6477V42.2193C73.2048 41.8053 73.1137 41.5072 72.9316 41.3251C72.7494 41.1429 72.443 41.0518 72.0124 41.0518C71.7723 41.0518 71.5115 41.0808 71.2299 41.1387C70.9567 41.1967 70.6669 41.2961 70.3605 41.4368C70.2032 41.5114 70.0624 41.5321 69.9382 41.4989C69.8223 41.4658 69.7312 41.3996 69.665 41.3002C69.5987 41.1926 69.5656 41.0766 69.5656 40.9524C69.5656 40.8282 69.5987 40.7082 69.665 40.5922C69.7312 40.468 69.843 40.377 70.0003 40.319C70.3812 40.1617 70.7455 40.0499 71.0933 39.9836C71.4494 39.9174 71.7723 39.8843 72.0621 39.8843C72.6583 39.8843 73.1468 39.9754 73.5277 40.1575C73.9169 40.3397 74.2067 40.6171 74.3972 40.9897C74.5876 41.354 74.6828 41.826 74.6828 42.4056V45.3866C74.6828 45.6432 74.6207 45.842 74.4965 45.9827C74.3723 46.1152 74.1943 46.1815 73.9625 46.1815C73.7306 46.1815 73.5484 46.1152 73.416 45.9827C73.2918 45.842 73.2296 45.6432 73.2296 45.3866V44.7904H73.329C73.271 45.0802 73.1551 45.3327 72.9812 45.548C72.8156 45.755 72.6045 45.9165 72.3478 46.0324C72.0911 46.1484 71.7971 46.2063 71.4659 46.2063ZM77.0536 46.1815C76.7969 46.1815 76.5982 46.1152 76.4574 45.9827C76.3249 45.842 76.2587 45.6432 76.2587 45.3866V40.6916C76.2587 40.4349 76.3249 40.2403 76.4574 40.1078C76.5899 39.9754 76.7762 39.9091 77.0164 39.9091C77.2565 39.9091 77.4428 39.9754 77.5753 40.1078C77.7078 40.2403 77.774 40.4349 77.774 40.6916V41.4741H77.6498C77.7657 40.9773 77.9934 40.6005 78.3329 40.3438C78.6724 40.0871 79.1237 39.934 79.6868 39.8843C79.8606 39.8677 79.9973 39.9133 80.0966 40.0209C80.2043 40.1203 80.2664 40.2776 80.2829 40.4929C80.2995 40.6999 80.2498 40.8696 80.1339 41.0021C80.0263 41.1263 79.8606 41.2008 79.6371 41.2257L79.3638 41.2505C78.8587 41.3002 78.4778 41.4575 78.2211 41.7225C77.9645 41.9792 77.8361 42.3435 77.8361 42.8155V45.3866C77.8361 45.6432 77.7699 45.842 77.6374 45.9827C77.5049 46.1152 77.3103 46.1815 77.0536 46.1815ZM84.6252 46.2063C84.1118 46.2063 83.6605 46.078 83.2713 45.8213C82.8904 45.5646 82.6379 45.221 82.5137 44.7904L82.6503 44.4799V45.3866C82.6503 45.6432 82.5841 45.842 82.4516 45.9827C82.3191 46.1152 82.1328 46.1815 81.8927 46.1815C81.6443 46.1815 81.4538 46.1152 81.3213 45.9827C81.1888 45.842 81.1226 45.6432 81.1226 45.3866V38.0088C81.1226 37.7521 81.1888 37.5575 81.3213 37.425C81.4538 37.2925 81.6443 37.2263 81.8927 37.2263C82.1411 37.2263 82.3315 37.2925 82.464 37.425C82.6048 37.5575 82.6752 37.7521 82.6752 38.0088V41.2381H82.5261C82.6586 40.8324 82.9153 40.5053 83.2962 40.2569C83.6771 40.0085 84.1201 39.8843 84.6252 39.8843C85.1634 39.8843 85.6312 40.0126 86.0287 40.2693C86.4262 40.526 86.7367 40.8903 86.9602 41.3623C87.1838 41.826 87.2956 42.3849 87.2956 43.0391C87.2956 43.6849 87.1838 44.248 86.9602 44.7283C86.7367 45.2003 86.422 45.5646 86.0163 45.8213C85.6188 46.078 85.1551 46.2063 84.6252 46.2063ZM84.1905 45.0264C84.4968 45.0264 84.7659 44.9518 84.9978 44.8028C85.2296 44.6537 85.4077 44.4343 85.5319 44.1445C85.6644 43.8464 85.7306 43.4779 85.7306 43.0391C85.7306 42.3767 85.5898 41.884 85.3083 41.561C85.0268 41.2298 84.6542 41.0642 84.1905 41.0642C83.8841 41.0642 83.615 41.1387 83.3831 41.2878C83.1513 41.4286 82.9691 41.648 82.8366 41.9461C82.7124 42.2359 82.6503 42.6002 82.6503 43.0391C82.6503 43.6932 82.7911 44.19 83.0726 44.5295C83.3541 44.8608 83.7268 45.0264 84.1905 45.0264ZM90.5698 46.2063C90.1309 46.2063 89.7376 46.1235 89.3898 45.9579C89.0503 45.784 88.7812 45.5522 88.5825 45.2624C88.392 44.9725 88.2968 44.6455 88.2968 44.2811C88.2968 43.834 88.4127 43.4821 88.6446 43.2254C88.8764 42.9604 89.2532 42.77 89.7748 42.654C90.2965 42.5381 90.9962 42.4802 91.8739 42.4802H92.4949V43.3744H91.8863C91.3729 43.3744 90.9631 43.3993 90.6567 43.449C90.3503 43.4986 90.1309 43.5856 89.9984 43.7098C89.8742 43.8257 89.8121 43.9913 89.8121 44.2066C89.8121 44.4799 89.9073 44.7034 90.0978 44.8773C90.2882 45.0512 90.5532 45.1381 90.8927 45.1381C91.1659 45.1381 91.4061 45.076 91.6131 44.9518C91.8284 44.8194 91.9981 44.6413 92.1223 44.4178C92.2465 44.1942 92.3086 43.9375 92.3086 43.6477V42.2193C92.3086 41.8053 92.2175 41.5072 92.0354 41.3251C91.8532 41.1429 91.5468 41.0518 91.1163 41.0518C90.8761 41.0518 90.6153 41.0808 90.3338 41.1387C90.0605 41.1967 89.7707 41.2961 89.4643 41.4368C89.307 41.5114 89.1662 41.5321 89.042 41.4989C88.9261 41.4658 88.835 41.3996 88.7688 41.3002C88.7025 41.1926 88.6694 41.0766 88.6694 40.9524C88.6694 40.8282 88.7025 40.7082 88.7688 40.5922C88.835 40.468 88.9468 40.377 89.1041 40.319C89.485 40.1617 89.8494 40.0499 90.1971 39.9836C90.5532 39.9174 90.8761 39.8843 91.1659 39.8843C91.7621 39.8843 92.2507 39.9754 92.6316 40.1575C93.0207 40.3397 93.3105 40.6171 93.501 40.9897C93.6914 41.354 93.7867 41.826 93.7867 42.4056V45.3866C93.7867 45.6432 93.7246 45.842 93.6004 45.9827C93.4762 46.1152 93.2981 46.1815 93.0663 46.1815C92.8344 46.1815 92.6523 46.1152 92.5198 45.9827C92.3956 45.842 92.3335 45.6432 92.3335 45.3866V44.7904H92.4328C92.3749 45.0802 92.2589 45.3327 92.0851 45.548C91.9194 45.755 91.7083 45.9165 91.4516 46.0324C91.1949 46.1484 90.901 46.2063 90.5698 46.2063Z" fill="white"/>
</g>
<defs>
<filter id="filter0_d_7074_207" x="0.666704" y="0.256456" width="139.687" height="91.5231" filterUnits="userSpaceOnUse" color-interpolation-filters="sRGB">
<feFlood flood-opacity="0" result="BackgroundImageFix"/>
<feColorMatrix in="SourceAlpha" type="matrix" values="0 0 0 0 0 0 0 0 0 0 0 0 0 0 0 0 0 0 127 0" result="hardAlpha"/>
<feOffset dx="4.4359" dy="4.4359"/>
<feGaussianBlur stdDeviation="13.3077"/>
<feComposite in2="hardAlpha" operator="out"/>
<feColorMatrix type="matrix" values="0 0 0 0 0 0 0 0 0 0 0 0 0 0 0 0 0 0 0.06 0"/>
<feBlend mode="normal" in2="BackgroundImageFix" result="effect1_dropShadow_7074_207"/>
<feBlend mode="normal" in="SourceGraphic" in2="effect1_dropShadow_7074_207" result="shape"/>
</filter>
<clipPath id="clip0_7074_207">
<rect width="14.1949" height="14.1949" fill="white" transform="translate(37.041 34.4847)"/>
</clipPath>
</defs>
</svg>
