<svg width="142" height="92" viewBox="0 0 142 92" fill="none" xmlns="http://www.w3.org/2000/svg">
<g filter="url(#filter0_d_7074_201)">
<rect x="17.7435" y="22.4359" width="92.4564" height="38.2923" rx="8.87179" fill="#1A1B1F" shape-rendering="crispEdges"/>
<rect x="18.1871" y="22.8795" width="91.5692" height="37.4051" rx="8.4282" stroke="#26272B" stroke-width="0.887179" shape-rendering="crispEdges"/>
<g clip-path="url(#clip0_7074_201)">
<path fill-rule="evenodd" clip-rule="evenodd" d="M32.31 36.6454C31.9687 37.2348 31.8574 37.9296 31.9975 38.5961C32.1375 39.2626 32.5191 39.8538 33.0687 40.256C33.6184 40.6581 34.2973 40.8429 34.9749 40.7747C35.6526 40.7065 36.2811 40.3902 36.7396 39.8866L37.4359 40.2888C37.4556 40.3613 37.5518 40.3802 37.6015 40.3227C37.7203 40.1834 37.8518 40.0561 37.9958 39.941C38.2214 39.7596 38.2324 39.3819 37.9816 39.2376L37.331 38.8614C37.5345 38.2135 37.492 37.5133 37.2118 36.8948C36.9315 36.2762 36.4331 35.7826 35.8119 35.5084C35.1906 35.2342 34.4901 35.1985 33.8442 35.4083C33.1983 35.6181 32.6524 36.0585 32.3108 36.6454M33.9117 39.3913C33.7308 39.2885 33.5721 39.151 33.4447 38.9866C33.3173 38.8222 33.2236 38.6342 33.1691 38.4335C33.1146 38.2327 33.1003 38.0232 33.1271 37.8169C33.154 37.6107 33.2213 37.4117 33.3253 37.2316C33.4293 37.0515 33.5679 36.8937 33.7331 36.7674C33.8984 36.641 34.087 36.5486 34.2881 36.4954C34.4892 36.4423 34.6988 36.4294 34.9049 36.4576C35.1109 36.4857 35.3094 36.5544 35.4889 36.6596C35.8482 36.8702 36.1096 37.2144 36.216 37.6171C36.3225 38.0198 36.2653 38.4482 36.0571 38.8089C35.8488 39.1695 35.5064 39.4332 35.1044 39.5423C34.7025 39.6515 34.2737 39.5972 33.9117 39.3913ZM39.0029 40.2509C38.6985 40.3792 38.4275 40.5754 38.2104 40.8244C37.9934 41.0734 37.8361 41.3687 37.7506 41.6877L37.4367 42.8596L36.7396 43.2618C36.2802 42.7611 35.6524 42.4473 34.9762 42.3806C34.2999 42.3138 33.6228 42.4988 33.0745 42.9001C32.5261 43.3014 32.145 43.8909 32.0041 44.5556C31.8632 45.2203 31.9724 45.9137 32.3108 46.503C32.6509 47.0926 33.1969 47.5357 33.8439 47.7473C34.491 47.9588 35.1933 47.9237 35.816 47.6489C36.4388 47.3741 36.938 46.8788 37.2178 46.2582C37.4976 45.6377 37.5382 44.9356 37.3318 44.287L45.7541 39.4245C45.8552 39.3658 45.9366 39.2785 45.9881 39.1737C46.0396 39.0688 46.0589 38.951 46.0435 38.8352C46.0282 38.7194 45.9789 38.6107 45.9018 38.5229C45.8248 38.435 45.7234 38.372 45.6106 38.3417L45.0562 38.1927C44.5905 38.0681 44.0966 38.1022 43.6525 38.2897L39.0029 40.2509ZM33.3344 45.9115C33.2292 45.7321 33.1605 45.5336 33.1324 45.3275C33.1042 45.1214 33.117 44.9118 33.1702 44.7107C33.2234 44.5096 33.3158 44.321 33.4421 44.1558C33.5685 43.9906 33.7263 43.852 33.9064 43.748C34.0865 43.6439 34.2855 43.5766 34.4917 43.5498C34.698 43.523 34.9075 43.5372 35.1083 43.5917C35.309 43.6462 35.497 43.7399 35.6614 43.8673C35.8258 43.9948 35.9633 44.1535 36.0661 44.3343C36.272 44.6964 36.3263 45.1251 36.2171 45.5271C36.108 45.929 35.8443 46.2715 35.4836 46.4797C35.123 46.688 34.6945 46.7451 34.2919 46.6387C33.8892 46.5322 33.545 46.2708 33.3344 45.9115Z" fill="white"/>
<path d="M41.0249 43.0647C40.9613 43.1014 40.9092 43.1551 40.8745 43.2198C40.8398 43.2845 40.8238 43.3576 40.8284 43.4309C40.833 43.5042 40.858 43.5747 40.9005 43.6346C40.943 43.6945 41.0014 43.7413 41.0691 43.7697L43.651 44.8588C44.0951 45.0462 44.589 45.0804 45.0547 44.9558L45.6099 44.8067C45.7226 44.7762 45.8238 44.7131 45.9007 44.6251C45.9775 44.5372 46.0267 44.4285 46.0418 44.3127C46.057 44.1969 46.0376 44.0792 45.986 43.9744C45.9343 43.8697 45.8529 43.7825 45.7518 43.724L43.0153 42.1436C42.9554 42.109 42.8874 42.0908 42.8182 42.0908C42.749 42.0908 42.681 42.109 42.621 42.1436L41.0249 43.0647Z" fill="white"/>
</g>
<path d="M60.0354 46.2063C59.1246 46.2063 58.3421 46.0241 57.688 45.6598C57.0421 45.2872 56.5453 44.7655 56.1975 44.0948C55.8497 43.4158 55.6758 42.6168 55.6758 41.6977C55.6758 41.0104 55.7752 40.3935 55.9739 39.847C56.1727 39.2922 56.4583 38.8202 56.8309 38.4311C57.2036 38.0336 57.659 37.7314 58.1972 37.5244C58.7437 37.3091 59.3564 37.2014 60.0354 37.2014C60.4909 37.2014 60.938 37.2594 61.3769 37.3753C61.8157 37.4912 62.2007 37.6568 62.532 37.8721C62.7058 37.9798 62.8218 38.1123 62.8797 38.2696C62.9377 38.4186 62.9501 38.5677 62.917 38.7167C62.8839 38.8575 62.8135 38.9776 62.7058 39.0769C62.6065 39.1763 62.4781 39.2342 62.3208 39.2508C62.1718 39.2591 62.0062 39.2053 61.824 39.0893C61.5673 38.9237 61.2899 38.8037 60.9918 38.7291C60.6937 38.6546 60.3915 38.6174 60.0851 38.6174C59.4972 38.6174 59.0004 38.7374 58.5947 38.9776C58.1889 39.2177 57.8825 39.5655 57.6755 40.0209C57.4685 40.4763 57.365 41.0352 57.365 41.6977C57.365 42.3518 57.4685 42.9107 57.6755 43.3744C57.8825 43.8381 58.1889 44.19 58.5947 44.4302C59.0004 44.6703 59.4972 44.7904 60.0851 44.7904C60.3998 44.7904 60.7103 44.7531 61.0167 44.6786C61.323 44.5958 61.6128 44.4716 61.8861 44.306C62.0683 44.1983 62.2297 44.1528 62.3705 44.1693C62.5195 44.1776 62.6437 44.2273 62.7431 44.3184C62.8425 44.4095 62.9087 44.5254 62.9418 44.6662C62.975 44.7986 62.9667 44.9394 62.917 45.0885C62.8673 45.2292 62.7679 45.3534 62.6189 45.4611C62.2877 45.7012 61.8902 45.8875 61.4265 46.02C60.9711 46.1442 60.5074 46.2063 60.0354 46.2063ZM66.0359 46.2063C65.597 46.2063 65.2037 46.1235 64.856 45.9579C64.5165 45.784 64.2473 45.5522 64.0486 45.2623C63.8582 44.9725 63.7629 44.6455 63.7629 44.2811C63.7629 43.834 63.8789 43.4821 64.1107 43.2254C64.3426 42.9604 64.7193 42.77 65.241 42.654C65.7627 42.5381 66.4623 42.4801 67.3401 42.4801H67.9611V43.3744H67.3525C66.8391 43.3744 66.4292 43.3993 66.1228 43.4489C65.8165 43.4986 65.597 43.5856 65.4646 43.7098C65.3404 43.8257 65.2783 43.9913 65.2783 44.2066C65.2783 44.4798 65.3735 44.7034 65.5639 44.8773C65.7544 45.0512 66.0193 45.1381 66.3588 45.1381C66.6321 45.1381 66.8722 45.076 67.0792 44.9518C67.2945 44.8193 67.4643 44.6413 67.5885 44.4177C67.7127 44.1942 67.7748 43.9375 67.7748 43.6477V42.2193C67.7748 41.8053 67.6837 41.5072 67.5015 41.325C67.3194 41.1429 67.013 41.0518 66.5824 41.0518C66.3423 41.0518 66.0814 41.0808 65.7999 41.1387C65.5267 41.1967 65.2368 41.2961 64.9305 41.4368C64.7731 41.5113 64.6324 41.532 64.5082 41.4989C64.3923 41.4658 64.3012 41.3996 64.2349 41.3002C64.1687 41.1925 64.1356 41.0766 64.1356 40.9524C64.1356 40.8282 64.1687 40.7081 64.2349 40.5922C64.3012 40.468 64.413 40.3769 64.5703 40.319C64.9512 40.1616 65.3155 40.0499 65.6633 39.9836C66.0193 39.9174 66.3423 39.8843 66.6321 39.8843C67.2283 39.8843 67.7168 39.9753 68.0977 40.1575C68.4869 40.3397 68.7767 40.6171 68.9671 40.9897C69.1576 41.354 69.2528 41.826 69.2528 42.4056V45.3865C69.2528 45.6432 69.1907 45.842 69.0665 45.9827C68.9423 46.1152 68.7643 46.1815 68.5324 46.1815C68.3006 46.1815 68.1184 46.1152 67.9859 45.9827C67.8617 45.842 67.7996 45.6432 67.7996 45.3865V44.7904H67.899C67.841 45.0802 67.7251 45.3327 67.5512 45.548C67.3856 45.755 67.1744 45.9165 66.9178 46.0324C66.6611 46.1483 66.3671 46.2063 66.0359 46.2063ZM74.3313 46.2063C73.8179 46.2063 73.3666 46.078 72.9774 45.8213C72.5965 45.5646 72.344 45.2209 72.2198 44.7904L72.3564 44.4798V45.3865C72.3564 45.6432 72.2901 45.842 72.1577 45.9827C72.0252 46.1152 71.8389 46.1815 71.5987 46.1815C71.3503 46.1815 71.1599 46.1152 71.0274 45.9827C70.8949 45.842 70.8287 45.6432 70.8287 45.3865V38.0088C70.8287 37.7521 70.8949 37.5575 71.0274 37.425C71.1599 37.2925 71.3503 37.2263 71.5987 37.2263C71.8471 37.2263 72.0376 37.2925 72.1701 37.425C72.3108 37.5575 72.3812 37.7521 72.3812 38.0088V41.2381H72.2322C72.3647 40.8324 72.6214 40.5053 73.0023 40.2569C73.3832 40.0085 73.8262 39.8843 74.3313 39.8843C74.8695 39.8843 75.3373 40.0126 75.7348 40.2693C76.1322 40.526 76.4427 40.8903 76.6663 41.3623C76.8899 41.826 77.0017 42.3849 77.0017 43.0391C77.0017 43.6849 76.8899 44.248 76.6663 44.7283C76.4427 45.2002 76.1281 45.5646 75.7223 45.8213C75.3249 46.078 74.8612 46.2063 74.3313 46.2063ZM73.8965 45.0263C74.2029 45.0263 74.472 44.9518 74.7039 44.8028C74.9357 44.6537 75.1137 44.4343 75.2379 44.1445C75.3704 43.8464 75.4367 43.4779 75.4367 43.0391C75.4367 42.3766 75.2959 41.884 75.0144 41.561C74.7328 41.2298 74.3602 41.0642 73.8965 41.0642C73.5902 41.0642 73.3211 41.1387 73.0892 41.2878C72.8574 41.4285 72.6752 41.648 72.5427 41.9461C72.4185 42.2359 72.3564 42.6002 72.3564 43.0391C72.3564 43.6932 72.4972 44.19 72.7787 44.5295C73.0602 44.8607 73.4328 45.0263 73.8965 45.0263ZM81.2695 46.2063C80.5822 46.2063 79.9902 46.078 79.4933 45.8213C78.9965 45.5646 78.6115 45.2002 78.3382 44.7283C78.0733 44.2563 77.9408 43.6974 77.9408 43.0515C77.9408 42.4222 78.0691 41.8715 78.3258 41.3996C78.5908 40.9276 78.951 40.5591 79.4064 40.2941C79.8701 40.0209 80.3959 39.8843 80.9838 39.8843C81.4144 39.8843 81.7994 39.9546 82.1389 40.0954C82.4867 40.2362 82.7806 40.439 83.0208 40.704C83.2692 40.969 83.4555 41.2919 83.5797 41.6728C83.7122 42.0454 83.7784 42.4677 83.7784 42.9397C83.7784 43.0887 83.7246 43.2047 83.6169 43.2875C83.5176 43.362 83.3727 43.3993 83.1822 43.3993H79.1952V42.505H82.6854L82.4867 42.6913C82.4867 42.3104 82.4287 41.9916 82.3128 41.7349C82.2051 41.4782 82.0437 41.2836 81.8284 41.1511C81.6214 41.0104 81.3606 40.94 81.0459 40.94C80.6981 40.94 80.4 41.0228 80.1516 41.1884C79.9115 41.3457 79.7252 41.5734 79.5927 41.8715C79.4685 42.1614 79.4064 42.5091 79.4064 42.9149V43.0018C79.4064 43.6808 79.5637 44.19 79.8784 44.5295C80.2013 44.8607 80.6733 45.0263 81.2943 45.0263C81.5096 45.0263 81.7497 45.0015 82.0147 44.9518C82.2879 44.8939 82.5446 44.7986 82.7848 44.6662C82.9587 44.5668 83.1118 44.5254 83.2443 44.5419C83.3768 44.5502 83.4803 44.5958 83.5548 44.6786C83.6376 44.7614 83.6873 44.8649 83.7039 44.9891C83.7204 45.105 83.6956 45.2251 83.6294 45.3493C83.5714 45.4735 83.4679 45.5811 83.3189 45.6722C83.029 45.8544 82.6937 45.991 82.3128 46.0821C81.9402 46.1649 81.5924 46.2063 81.2695 46.2063ZM87.0822 46.2063C86.3949 46.2063 85.8774 46.0117 85.5296 45.6225C85.1818 45.2251 85.0079 44.6455 85.0079 43.8837V38.0088C85.0079 37.7521 85.0742 37.5575 85.2067 37.425C85.3392 37.2925 85.5296 37.2263 85.778 37.2263C86.0264 37.2263 86.2169 37.2925 86.3494 37.425C86.4901 37.5575 86.5605 37.7521 86.5605 38.0088V43.8091C86.5605 44.19 86.6392 44.4716 86.7965 44.6537C86.9621 44.8359 87.194 44.927 87.492 44.927C87.5583 44.927 87.6204 44.927 87.6784 44.927C87.7363 44.9187 87.7943 44.9104 87.8522 44.9021C87.9682 44.8856 88.0468 44.9187 88.0882 45.0015C88.1296 45.076 88.1503 45.2334 88.1503 45.4735C88.1503 45.6805 88.1089 45.842 88.0261 45.9579C87.9433 46.0738 87.8067 46.1442 87.6163 46.169C87.5334 46.1773 87.4465 46.1856 87.3554 46.1939C87.2643 46.2022 87.1733 46.2063 87.0822 46.2063ZM91.6834 46.2063C91.0541 46.2063 90.5076 46.078 90.0439 45.8213C89.5802 45.5646 89.22 45.2002 88.9633 44.7283C88.7066 44.248 88.5783 43.6849 88.5783 43.0391C88.5783 42.5505 88.6486 42.1158 88.7894 41.7349C88.9385 41.3457 89.1496 41.0145 89.4229 40.7413C89.6961 40.4597 90.0232 40.2486 90.4041 40.1078C90.785 39.9588 91.2114 39.8843 91.6834 39.8843C92.3127 39.8843 92.8592 40.0126 93.3229 40.2693C93.7866 40.526 94.1468 40.8903 94.4035 41.3623C94.6602 41.8343 94.7885 42.3932 94.7885 43.0391C94.7885 43.5276 94.714 43.9665 94.5649 44.3556C94.4242 44.7448 94.2172 45.0802 93.9439 45.3617C93.6707 45.635 93.3436 45.8461 92.9627 45.9951C92.5818 46.1359 92.1554 46.2063 91.6834 46.2063ZM91.6834 45.0263C91.9898 45.0263 92.2589 44.9518 92.4907 44.8028C92.7226 44.6537 92.9006 44.4343 93.0248 44.1445C93.1573 43.8464 93.2235 43.4779 93.2235 43.0391C93.2235 42.3766 93.0828 41.884 92.8012 41.561C92.5197 41.2298 92.1471 41.0642 91.6834 41.0642C91.377 41.0642 91.1079 41.1387 90.8761 41.2878C90.6442 41.4285 90.462 41.648 90.3296 41.9461C90.2053 42.2359 90.1432 42.6002 90.1432 43.0391C90.1432 43.6932 90.284 44.19 90.5655 44.5295C90.8471 44.8607 91.2197 45.0263 91.6834 45.0263Z" fill="white"/>
</g>
<defs>
<filter id="filter0_d_7074_201" x="-4.43596" y="0.256441" width="145.687" height="91.5231" filterUnits="userSpaceOnUse" color-interpolation-filters="sRGB">
<feFlood flood-opacity="0" result="BackgroundImageFix"/>
<feColorMatrix in="SourceAlpha" type="matrix" values="0 0 0 0 0 0 0 0 0 0 0 0 0 0 0 0 0 0 127 0" result="hardAlpha"/>
<feOffset dx="4.4359" dy="4.4359"/>
<feGaussianBlur stdDeviation="13.3077"/>
<feComposite in2="hardAlpha" operator="out"/>
<feColorMatrix type="matrix" values="0 0 0 0 0 0 0 0 0 0 0 0 0 0 0 0 0 0 0.06 0"/>
<feBlend mode="normal" in2="BackgroundImageFix" result="effect1_dropShadow_7074_201"/>
<feBlend mode="normal" in="SourceGraphic" in2="effect1_dropShadow_7074_201" result="shape"/>
</filter>
<clipPath id="clip0_7074_201">
<rect width="14.1949" height="14.1949" fill="white" transform="translate(31.9384 34.4846)"/>
</clipPath>
</defs>
</svg>
